# xmcd
#
# Track frame offsets:
#	150
#	16362
#	34193
#	49988
#	72315
#	92113
#	109983
#	131019
#	149526
#	167427
#	189981
#	209130
#
# Disc length: 3024 seconds
#
# Revision: 0
# Processed by: cddbd v1.5.1PL2 Copyright (c) Steve Scherf et al.
# Submitted via: EasyCDDAExtractor 8.0.1.1
#
DISCID=b50bce0c
DTITLE=Hunt, Kelley - New Shade Of Blue
DYEAR=2004
DGENRE=Blues
TTITLE0=Waking Up Slow
TTITLE1=Temptation
TTITLE2=Deal With It (Feat Delbert McClinton)
TTITLE3=That's What Makes You Strong
TTITLE4=Long Way Home
TTITLE5=Why Do I Love You
TTITLE6=Darkness
TTITLE7=The Word
TTITLE8=New Shade Of Blue
TTITLE9=When Love Comes Through
TTITLE10=It Ain't Over When It's Over
TTITLE11=Would You Still Be There
EXTD=
EXTT0=
EXTT1=
EXTT2=
EXTT3=
EXTT4=
EXTT5=
EXTT6=
EXTT7=
EXTT8=
EXTT9=
EXTT10=
EXTT11=
PLAYORDER=
